<svg width="512" height="512" viewBox="0 0 512 512" fill="none" xmlns="http://www.w3.org/2000/svg">
<path d="M256.004 232.003C196.447 232.003 112.005 324.072 112.005 382.188C112.005 408.363 132.113 424 165.81 424C202.439 424 226.627 405.19 256.004 405.19C285.636 405.19 309.891 424 346.198 424C379.895 424 400.002 408.363 400.002 382.188C400.002 324.072 315.561 232.003 256.004 232.003ZM145.545 222.546C137.745 196.559 113.715 179.729 91.8755 184.949C70.0357 190.169 58.6583 215.466 66.4582 241.453C74.2581 267.44 98.2879 284.27 120.128 279.05C141.967 273.83 153.345 248.533 145.545 222.546ZM209.084 206.961C232.289 200.856 243.899 169.507 235.019 136.942C226.139 104.378 200.129 82.9354 176.925 89.0403C153.72 95.1452 142.11 126.495 150.99 159.059C159.87 191.624 185.887 213.073 209.084 206.961ZM420.124 184.956C398.285 179.736 374.262 196.566 366.455 222.553C358.655 248.54 370.033 273.837 391.872 279.057C413.712 284.277 437.734 267.447 445.542 241.46C453.342 215.473 441.964 190.176 420.124 184.956ZM302.923 206.961C326.128 213.066 352.138 191.624 361.018 159.059C369.898 126.495 358.288 95.1527 335.083 89.0403C311.878 82.9279 285.868 104.378 276.989 136.942C268.109 169.507 279.718 200.856 302.923 206.961Z" fill="black"/>
</svg>
